<?xml version="1.0" standalone="no"?>
<!DOCTYPE svg PUBLIC "-//W3C//DTD SVG 20010904//EN"
 "http://www.w3.org/TR/2001/REC-SVG-20010904/DTD/svg10.dtd">
<svg version="1.0" xmlns="http://www.w3.org/2000/svg"
 width="4167.000000pt" height="4167.000000pt" viewBox="0 0 4167.000000 4167.000000"
 preserveAspectRatio="xMidYMid meet">
<metadata>
Created by potrace 1.14, written by Peter Selinger 2001-2017
</metadata>
<g transform="translate(0.000000,4167.000000) scale(0.100000,-0.100000)"
fill="#000000" stroke="none">
<path d="M20485 31494 c-349 -17 -517 -27 -680 -39 -2968 -231 -5763 -1286
-7775 -2934 -320 -262 -763 -682 -1034 -981 -546 -602 -1008 -1278 -1356
-1985 -101 -205 -248 -542 -315 -722 l-38 -101 -139 -97 c-1337 -928 -2440
-2167 -3118 -3500 -473 -932 -731 -1855 -800 -2865 -13 -190 -13 -653 0 -855
35 -533 142 -1132 284 -1590 l25 -79 -58 -146 c-164 -410 -230 -781 -218
-1234 16 -626 202 -1177 559 -1654 89 -119 304 -337 416 -421 291 -220 617
-356 997 -418 163 -26 483 -24 670 5 256 40 525 120 794 237 l130 56 120 -66
c377 -205 909 -416 1421 -564 1015 -292 2130 -441 3312 -441 l277 0 47 -29
c127 -81 685 -144 1524 -172 384 -13 1299 -7 1550 11 380 26 655 57 927 106
l142 26 82 -72 c200 -177 408 -314 664 -440 275 -136 524 -219 850 -285 243
-49 391 -66 630 -72 872 -23 1788 279 2833 934 l184 115 176 -11 c787 -51
1615 -37 2672 44 1039 81 2013 213 2972 405 850 170 1419 332 1934 551 162 69
207 101 236 167 14 31 24 42 36 38 97 -28 390 -34 569 -11 310 41 557 117 844
261 327 163 605 369 874 645 480 494 715 992 715 1518 0 243 -34 403 -128 604
l-46 98 51 97 c114 216 224 507 288 762 72 285 104 530 111 850 l5 225 102 79
c190 148 423 402 613 671 274 386 581 1040 747 1590 156 514 243 991 278 1514
15 233 6 769 -16 976 -52 494 -164 947 -339 1373 -41 101 -46 121 -46 190 0
60 -5 88 -24 129 -77 164 -342 181 -448 28 -35 -50 -48 -119 -48 -255 0 -525
-219 -1407 -515 -2075 -155 -350 -368 -723 -544 -954 -133 -173 -325 -361
-460 -450 -84 -54 -182 -101 -211 -100 -8 0 -51 43 -95 96 -180 215 -413 391
-637 482 l-93 38 -13 69 c-59 313 -111 574 -153 764 -413 1851 -1144 3585
-2142 5085 -672 1010 -1411 1846 -2184 2472 -65 53 -187 148 -271 210 -83 63
-164 130 -179 149 -28 37 -90 78 -135 88 -15 3 -78 39 -140 80 -971 632 -2239
1152 -3512 1440 -769 174 -1452 270 -2341 326 -161 11 -1260 21 -1410 14z
m1155 -524 c1171 -51 2195 -217 3239 -525 789 -234 1481 -526 2184 -924 70
-40 127 -75 127 -79 0 -4 -55 -29 -123 -56 -478 -192 -941 -429 -1898 -974
-666 -378 -788 -444 -837 -454 -61 -11 -107 -35 -155 -80 -88 -82 -706 -370
-1140 -532 -408 -152 -855 -267 -1221 -313 -182 -24 -769 -23 -1056 1 -593 49
-954 120 -2240 441 -1081 269 -1367 322 -1940 357 -282 17 -1252 16 -1860 -2
-603 -18 -1537 -19 -1820 -2 -293 18 -775 65 -787 76 -2 2 63 59 145 128 825
699 1838 1312 2952 1788 626 267 1391 522 2096 699 1066 267 2073 411 3189
454 190 8 947 6 1145 -3z m6297 -2024 c982 -736 1881 -1790 2680 -3141 695
-1174 1214 -2449 1567 -3852 116 -462 246 -1078 229 -1093 -4 -4 -42 -12 -84
-18 -43 -6 -119 -24 -170 -40 -52 -16 -112 -34 -135 -41 -60 -16 -106 -64
-170 -176 -208 -365 -502 -665 -931 -949 -434 -286 -778 -435 -1257 -542 -296
-66 -604 -90 -942 -74 -332 17 -572 54 -939 147 -185 46 -682 206 -708 226
-11 10 -13 35 -6 142 11 191 10 970 -1 1195 -79 1561 -387 3105 -876 4403
-363 962 -777 1716 -1287 2345 -55 67 -98 124 -96 126 14 11 1143 655 1316
750 542 296 1036 522 1470 671 87 30 159 55 160 55 1 0 82 -60 180 -134z
m-15987 -1546 c229 -33 512 -63 760 -80 91 -7 166 -13 167 -14 1 0 -33 -39
-74 -86 -160 -181 -432 -529 -594 -760 -88 -125 -251 -377 -277 -426 -6 -12
-23 -25 -38 -28 -59 -15 -413 -143 -609 -221 -367 -145 -698 -297 -1027 -471
-108 -57 -200 -104 -203 -104 -11 0 215 434 310 595 324 553 714 1070 1153
1526 l121 126 53 -13 c29 -8 145 -27 258 -44z m12418 -101 c225 -250 504 -646
723 -1027 758 -1320 1292 -3262 1434 -5217 24 -329 39 -952 29 -1212 l-9 -232
-255 128 c-537 269 -1060 581 -1735 1035 -729 491 -1445 1025 -2868 2138 -905
708 -1395 1080 -1862 1413 -137 98 -251 179 -252 180 -1 0 20 116 48 256 97
495 155 868 180 1157 13 157 7 569 -10 661 -6 30 -9 56 -7 58 2 2 97 -12 212
-31 808 -135 1472 -151 2114 -51 634 98 1298 326 2035 698 94 47 173 86 178
86 4 1 24 -18 45 -40z m-7898 11 c560 -26 883 -87 2259 -428 l474 -118 19 -53
c89 -262 83 -723 -17 -1326 -38 -225 -100 -543 -108 -552 -3 -2 -38 17 -79 45
-107 72 -502 317 -658 408 -1074 626 -1920 966 -2741 1099 -800 129 -1791 86
-2758 -121 -90 -19 -165 -34 -167 -32 -3 4 179 248 249 333 257 313 524 580
684 682 l61 40 469 8 c257 4 585 11 728 15 406 10 1358 11 1585 0z m-1390
-1390 c401 -25 749 -91 1170 -220 704 -217 1526 -639 2532 -1302 204 -134 232
-156 265 -206 46 -68 109 -110 180 -119 47 -5 78 -25 374 -237 561 -400 913
-667 2029 -1536 1233 -960 1738 -1340 2350 -1767 1378 -961 2526 -1558 3535
-1838 987 -274 1897 -269 2720 16 859 296 1621 864 2006 1494 29 47 60 90 69
95 9 5 56 16 106 26 224 42 457 -15 649 -161 140 -105 298 -280 346 -380 16
-35 45 -77 63 -93 66 -57 229 -364 329 -617 173 -439 341 -1127 351 -1435 1
-58 8 -150 15 -205 19 -158 -1 -514 -40 -725 -51 -270 -137 -537 -239 -745
-177 -359 -358 -605 -666 -905 -186 -182 -355 -317 -577 -464 -737 -486 -1582
-803 -2687 -1005 -1057 -194 -2318 -210 -3308 -41 -524 90 -1100 255 -1807
520 -867 324 -1657 726 -2400 1221 -671 448 -1206 889 -1820 1504 -492 491
-935 998 -1395 1595 -519 673 -810 1011 -1172 1366 -1052 1028 -2340 1741
-3698 2048 -592 133 -1095 189 -1715 189 -806 0 -1458 -99 -2080 -314 -536
-185 -973 -442 -1410 -830 -176 -156 -615 -613 -896 -934 -503 -573 -925
-1207 -1210 -1817 -76 -163 -129 -247 -584 -928 -374 -559 -549 -810 -556
-797 -26 47 -115 589 -146 887 -22 212 -25 913 -5 1125 84 890 311 1669 731
2502 402 799 915 1497 1611 2194 403 403 778 723 1229 1046 113 80 146 99 202
113 78 19 131 55 168 115 28 46 43 57 306 215 547 330 1156 619 1775 842 163
59 166 60 215 47 115 -29 203 -3 278 81 l42 47 170 47 c611 166 1137 251 1790
289 133 8 659 6 805 -3z m20814 -3550 c51 -408 49 -914 -5 -1350 -125 -1007
-511 -2018 -1018 -2670 -70 -90 -231 -263 -238 -256 -3 3 -20 78 -39 168 -91
434 -251 905 -439 1295 l-83 173 41 18 c69 31 191 107 279 173 110 83 344 318
448 449 269 341 544 845 771 1412 68 169 194 544 230 682 27 106 29 103 53
-94z m-22884 -900 c718 -25 1446 -178 2174 -457 1120 -430 2213 -1219 3054
-2205 123 -144 313 -382 643 -808 208 -268 380 -481 621 -765 l28 -33 -91 -31
c-688 -241 -1304 -725 -1726 -1356 -323 -485 -524 -1043 -610 -1700 -26 -198
-26 -772 0 -955 41 -292 101 -545 186 -789 28 -79 48 -148 45 -152 -8 -14
-475 -164 -694 -223 -700 -191 -1393 -300 -2265 -358 -254 -17 -1159 -17
-1420 0 -1033 66 -1888 220 -2695 484 -614 201 -1083 424 -1535 729 -215 145
-350 255 -534 434 -346 338 -582 658 -781 1060 -178 359 -280 702 -337 1125
-28 209 -25 727 4 945 75 543 238 1059 504 1595 191 384 393 708 662 1065 212
281 485 602 558 654 34 25 68 63 269 298 169 198 464 475 675 634 683 515
1515 771 2635 808 327 11 340 11 630 1z m7241 -5033 c624 -624 1112 -1034
1764 -1484 918 -633 1991 -1163 3093 -1527 61 -21 112 -39 112 -41 0 -6 -382
-351 -576 -521 -1183 -1036 -2108 -1640 -2979 -1946 -775 -272 -1475 -297
-2151 -77 -605 197 -1077 550 -1412 1056 -87 132 -95 150 -107 218 -15 83 -38
128 -92 175 -77 68 -206 466 -262 807 -46 278 -53 717 -17 992 48 359 160 744
306 1048 291 605 708 1055 1265 1362 140 77 283 137 482 201 126 41 196 69
219 89 0 1 160 -158 355 -352z m-13720 -257 c-39 -549 40 -1123 227 -1646 262
-732 777 -1427 1445 -1947 l97 -76 -80 -25 c-268 -85 -419 -110 -675 -110
-179 0 -225 4 -315 23 -344 73 -588 206 -836 455 -107 107 -160 170 -220 261
-185 279 -303 579 -364 926 -28 159 -38 482 -21 665 47 503 246 976 576 1374
48 58 98 129 111 158 28 61 55 105 61 98 2 -2 0 -72 -6 -156z m27375 -1247
c23 -221 -39 -487 -172 -731 -331 -607 -1017 -1120 -1689 -1264 -94 -20 -138
-23 -305 -23 -182 0 -202 2 -295 28 -180 50 -315 127 -442 253 l-78 77 65 19
c961 278 1764 680 2375 1190 129 107 354 326 446 434 40 46 76 84 80 84 4 0
11 -30 15 -67z"/>
<path d="M8736 17269 c-271 -37 -572 -139 -801 -270 -150 -85 -312 -238 -346
-325 -17 -46 -13 -136 9 -186 45 -103 132 -161 237 -161 78 1 141 32 215 108
173 179 586 325 917 325 284 0 465 -87 563 -271 60 -113 129 -158 243 -159 39
0 83 7 105 15 49 21 110 80 133 130 23 50 25 146 4 206 -43 120 -200 309 -330
396 -121 81 -270 142 -435 178 -90 19 -412 28 -514 14z"/>
<path d="M14945 17235 c-233 -37 -453 -110 -680 -224 -360 -182 -465 -280
-465 -429 1 -131 96 -237 231 -257 67 -10 114 7 235 86 134 87 357 198 481
238 226 74 486 99 683 66 285 -47 525 -172 772 -402 106 -98 196 -115 306 -59
130 67 190 221 132 341 -37 76 -247 256 -433 372 -190 117 -422 209 -643 254
-141 28 -479 36 -619 14z"/>
</g>
</svg>
